<svg data-v-fde0c5aa="" xmlns="http://www.w3.org/2000/svg" viewBox="0 0 300 300" class="iconAbove"><!----><defs data-v-fde0c5aa=""><!----></defs><rect data-v-fde0c5aa="" fill="#FFFFFF" x="0" y="0" width="300px" height="300px" class="logo-background-square"></rect><defs data-v-fde0c5aa=""><!----></defs><g data-v-fde0c5aa="" id="1b3cc469-c996-400e-8c0a-20db3cba85c6" fill="#371C00" transform="matrix(2.8885681131805194,0,0,2.8885681131805194,19.04677248477257,171.68081431988534)"><path d="M3.14 6.93L2.67 6.93L2.67 6.93Q2.86 7.42 3.03 7.86L3.03 7.86L3.03 7.86Q3.20 8.30 3.37 8.74L3.37 8.74L3.37 8.74Q3.54 9.17 3.72 9.62L3.72 9.62L3.72 9.62Q3.89 10.06 4.08 10.56L4.08 10.56L4.08 10.56Q4.26 10.09 4.43 9.65L4.43 9.65L4.43 9.65Q4.60 9.20 4.77 8.76L4.77 8.76L4.77 8.76Q4.94 8.31 5.11 7.86L5.11 7.86L5.11 7.86Q5.28 7.41 5.47 6.93L5.47 6.93L4.98 6.93L4.98 6.27L6.90 6.27L6.90 6.93L6.18 6.93L6.18 6.93Q5.43 8.89 4.70 10.83L4.70 10.83L4.70 10.83Q3.96 12.78 3.23 14.74L3.23 14.74L3.23 14.74Q2.65 16.25 1.52 16.25L1.52 16.25L1.52 16.25Q1.31 16.25 1.03 16.19L1.03 16.19L1.03 14.92L1.03 14.92Q1.53 15.17 1.80 15.17L1.80 15.17L1.80 15.17Q2.32 15.17 2.62 14.48L2.62 14.48L2.61 14.49L2.61 14.49Q2.78 14.02 2.94 13.59L2.94 13.59L2.94 13.59Q3.10 13.15 3.27 12.69L3.27 12.69L3.27 12.69Q2.71 11.22 2.16 9.81L2.16 9.81L2.16 9.81Q1.62 8.39 1.05 6.93L1.05 6.93L0.33 6.93L0.33 6.27L3.14 6.27L3.14 6.93ZM7.48 6.27L9.76 6.27L9.76 10.21L9.76 10.21Q9.76 12.49 11.12 12.49L11.12 12.49L11.12 12.49Q11.84 12.49 12.49 11.72L12.49 11.72L12.49 6.93L11.80 6.93L11.80 6.27L14.08 6.27L14.08 12.35L14.77 12.35L14.77 13.01L12.49 13.01L12.49 12.64L12.49 12.64Q12.14 12.89 11.74 13.03L11.74 13.03L11.74 13.03Q11.34 13.17 10.89 13.17L10.89 13.17L10.89 13.17Q9.56 13.17 8.85 12.35L8.85 12.35L8.85 12.35Q8.17 11.59 8.17 10.25L8.17 10.25L8.17 6.93L7.48 6.93L7.48 6.27ZM22.93 6.73L22.93 6.73L22.93 6.73Q22.76 6.73 22.58 6.81L22.58 6.81L22.58 6.81Q22.40 6.90 22.21 7.08L22.21 7.08L22.21 7.08Q21.84 7.43 21.83 7.81L21.83 7.81L21.83 7.81Q21.83 8.98 21.83 10.08L21.83 10.08L21.83 10.08Q21.83 11.18 21.83 12.35L21.83 12.35L22.52 12.35L22.52 13.01L19.56 13.01L19.56 12.35L20.24 12.35L20.24 8.67L20.24 8.67Q20.24 6.73 19.20 6.73L19.20 6.73L19.20 6.73Q18.92 6.73 18.53 7.05L18.53 7.05L18.53 7.05Q18.12 7.40 18.12 7.64L18.12 7.64L18.12 12.35L18.81 12.35L18.81 13.01L15.84 13.01L15.84 12.35L16.53 12.35L16.53 6.93L15.84 6.93L15.84 6.27L18.12 6.27L18.12 6.54L18.12 6.54Q18.40 6.33 18.73 6.22L18.73 6.22L18.73 6.22Q19.06 6.10 19.43 6.10L19.43 6.10L19.43 6.10Q20.08 6.10 20.59 6.32L20.59 6.32L20.59 6.32Q21.11 6.54 21.47 6.92L21.47 6.92L21.47 6.92Q22.04 6.10 23.17 6.10L23.17 6.10L23.17 6.10Q25.55 6.10 25.55 9.00L25.55 9.00L25.55 12.35L26.24 12.35L26.24 13.01L23.28 13.01L23.28 12.35L23.96 12.35L23.96 8.67L23.96 8.67Q23.96 6.73 22.93 6.73ZM34.47 6.73L34.47 6.73L34.47 6.73Q34.30 6.73 34.12 6.81L34.12 6.81L34.12 6.81Q33.94 6.90 33.75 7.08L33.75 7.08L33.75 7.08Q33.38 7.43 33.37 7.81L33.37 7.81L33.37 7.81Q33.37 8.98 33.37 10.08L33.37 10.08L33.37 10.08Q33.37 11.18 33.37 12.35L33.37 12.35L34.06 12.35L34.06 13.01L31.10 13.01L31.10 12.35L31.78 12.35L31.78 8.67L31.78 8.67Q31.78 6.73 30.74 6.73L30.74 6.73L30.74 6.73Q30.46 6.73 30.07 7.05L30.07 7.05L30.07 7.05Q29.66 7.40 29.66 7.64L29.66 7.64L29.66 12.35L30.34 12.35L30.34 13.01L27.38 13.01L27.38 12.35L28.07 12.35L28.07 6.93L27.38 6.93L27.38 6.27L29.66 6.27L29.66 6.54L29.66 6.54Q29.93 6.33 30.27 6.22L30.27 6.22L30.27 6.22Q30.60 6.10 30.97 6.10L30.97 6.10L30.97 6.10Q31.62 6.10 32.13 6.32L32.13 6.32L32.13 6.32Q32.65 6.54 33.01 6.92L33.01 6.92L33.01 6.92Q33.58 6.10 34.71 6.10L34.71 6.10L34.71 6.10Q37.09 6.10 37.09 9.00L37.09 9.00L37.09 12.35L37.78 12.35L37.78 13.01L34.82 13.01L34.82 12.35L35.50 12.35L35.50 8.67L35.50 8.67Q35.50 6.73 34.47 6.73ZM40.80 6.93L40.33 6.93L40.33 6.93Q40.52 7.42 40.69 7.86L40.69 7.86L40.69 7.86Q40.86 8.30 41.03 8.74L41.03 8.74L41.03 8.74Q41.20 9.17 41.37 9.62L41.37 9.62L41.37 9.62Q41.55 10.06 41.74 10.56L41.74 10.56L41.74 10.56Q41.92 10.09 42.09 9.65L42.09 9.65L42.09 9.65Q42.26 9.20 42.43 8.76L42.43 8.76L42.43 8.76Q42.60 8.31 42.77 7.86L42.77 7.86L42.77 7.86Q42.94 7.41 43.13 6.93L43.13 6.93L42.64 6.93L42.64 6.27L44.56 6.27L44.56 6.93L43.84 6.93L43.84 6.93Q43.09 8.89 42.36 10.83L42.36 10.83L42.36 10.83Q41.62 12.78 40.89 14.74L40.89 14.74L40.89 14.74Q40.31 16.25 39.18 16.25L39.18 16.25L39.18 16.25Q38.97 16.25 38.68 16.19L38.68 16.19L38.69 14.92L38.69 14.92Q39.19 15.17 39.46 15.17L39.46 15.17L39.46 15.17Q39.98 15.17 40.28 14.48L40.28 14.48L40.27 14.49L40.27 14.49Q40.44 14.02 40.60 13.59L40.60 13.59L40.60 13.59Q40.76 13.15 40.93 12.69L40.93 12.69L40.93 12.69Q40.37 11.22 39.82 9.81L39.82 9.81L39.82 9.81Q39.28 8.39 38.71 6.93L38.71 6.93L37.99 6.93L37.99 6.27L40.80 6.27L40.80 6.93ZM47.56 4.51L47.56 4.51L47.56 4.51Q47.56 5.19 48.32 6.37L48.32 6.37L48.32 6.37Q49.26 5.33 49.26 4.59L49.26 4.59L49.26 4.59Q49.26 4.14 49.04 3.83L49.04 3.83L49.04 3.83Q48.82 3.50 48.40 3.50L48.40 3.50L48.40 3.50Q47.56 3.50 47.56 4.51ZM48.62 12.05L48.62 12.05L48.62 12.05Q49.40 12.05 50.22 11.59L50.22 11.59L50.22 11.59Q49.35 10.43 48.69 9.52L48.69 9.52L48.69 9.52Q48.03 8.61 47.59 7.91L47.59 7.91L47.59 7.91Q47.07 8.37 46.80 8.92L46.80 8.92L46.80 8.92Q46.53 9.47 46.53 10.12L46.53 10.12L46.53 10.12Q46.53 10.56 46.69 10.93L46.69 10.93L46.69 10.93Q46.85 11.29 47.12 11.55L47.12 11.55L47.12 11.55Q47.68 12.05 48.62 12.05ZM50.53 13.01L50.53 12.35L50.80 12.35L50.80 12.35Q50.76 12.29 50.73 12.24L50.73 12.24L50.73 12.24Q50.69 12.20 50.64 12.13L50.64 12.13L50.64 12.13Q49.33 13.15 47.97 13.15L47.97 13.15L47.97 13.15Q46.80 13.15 46.01 12.48L46.01 12.48L46.01 12.48Q45.19 11.76 45.19 10.60L45.19 10.60L45.19 10.60Q45.19 10.10 45.37 9.63L45.37 9.63L45.37 9.63Q45.55 9.15 45.90 8.70L45.90 8.70L45.90 8.70Q46.05 8.50 46.40 8.16L46.40 8.16L46.40 8.16Q46.74 7.81 47.24 7.34L47.24 7.34L47.24 7.34Q46.08 5.69 46.08 4.59L46.08 4.59L46.08 4.59Q46.08 4.10 46.22 3.71L46.22 3.71L46.22 3.71Q46.37 3.32 46.65 3.05L46.65 3.05L46.65 3.05Q46.92 2.78 47.31 2.64L47.31 2.64L47.31 2.64Q47.71 2.49 48.21 2.49L48.21 2.49L48.21 2.49Q48.62 2.49 48.96 2.65L48.96 2.65L48.96 2.65Q49.29 2.80 49.54 3.10L49.54 3.10L49.54 3.10Q49.99 3.67 49.99 4.50L49.99 4.50L49.99 4.50Q49.99 4.87 49.88 5.24L49.88 5.24L49.88 5.24Q49.76 5.61 49.55 5.93L49.55 5.93L49.55 5.93Q49.44 6.10 49.22 6.37L49.22 6.37L49.22 6.37Q48.99 6.64 48.69 6.98L48.69 6.98L48.69 6.98Q48.99 7.43 49.29 7.87L49.29 7.87L49.29 7.87Q49.59 8.31 49.91 8.76L49.91 8.76L49.91 8.76Q50.23 9.21 50.57 9.68L50.57 9.68L50.57 9.68Q50.91 10.14 51.30 10.65L51.30 10.65L51.30 10.65Q51.60 10.29 51.80 9.91L51.80 9.91L51.80 9.91Q51.99 9.53 52.08 9.13L52.08 9.13L51.45 9.13L51.45 8.46L53.46 8.46L53.46 9.13L52.75 9.13L52.75 9.13Q52.66 9.71 52.39 10.22L52.39 10.22L52.39 10.22Q52.12 10.73 51.69 11.20L51.69 11.20L51.69 11.20Q51.90 11.48 52.12 11.76L52.12 11.76L52.12 11.76Q52.35 12.04 52.60 12.35L52.60 12.35L53.33 12.35L53.33 13.01L50.53 13.01ZM54.16 12.35L54.85 12.35L54.85 6.93L53.96 6.93L53.96 6.27L54.85 6.27L54.85 5.07L54.85 5.07Q54.85 2.98 56.66 2.86L56.66 2.86L56.66 2.86Q57.03 2.86 57.35 2.94L57.35 2.94L57.35 2.94Q57.67 3.02 57.93 3.17L57.93 3.17L57.93 3.17Q57.96 3.17 58.01 3.13L58.01 3.13L58.01 3.13Q58.06 3.09 58.10 3.01L58.10 3.01L58.71 3.01L58.71 4.76L58.05 4.76L58.05 4.38L58.05 4.38Q57.93 3.96 57.72 3.77L57.72 3.77L57.72 3.77Q57.50 3.58 57.17 3.59L57.17 3.59L57.17 3.59Q56.46 3.63 56.43 4.63L56.43 4.63L56.43 4.63Q56.43 5.07 56.43 5.45L56.43 5.45L56.43 5.45Q56.44 5.83 56.44 6.27L56.44 6.27L57.90 6.27L57.90 6.93L56.44 6.93L56.44 6.93Q56.44 8.31 56.44 9.64L56.44 9.64L56.44 9.64Q56.44 10.96 56.44 12.35L56.44 12.35L57.38 12.35L57.38 13.01L54.16 13.01L54.16 12.35ZM58.74 6.27L61.02 6.27L61.02 10.21L61.02 10.21Q61.02 12.49 62.38 12.49L62.38 12.49L62.38 12.49Q63.10 12.49 63.75 11.72L63.75 11.72L63.75 6.93L63.06 6.93L63.06 6.27L65.34 6.27L65.34 12.35L66.04 12.35L66.04 13.01L63.75 13.01L63.75 12.64L63.75 12.64Q63.40 12.89 63.00 13.03L63.00 13.03L63.00 13.03Q62.60 13.17 62.15 13.17L62.15 13.17L62.15 13.17Q60.83 13.17 60.11 12.35L60.11 12.35L60.11 12.35Q59.43 11.59 59.43 10.25L59.43 10.25L59.43 6.93L58.74 6.93L58.74 6.27ZM74.40 13.01L71.43 13.01L71.43 12.35L72.11 12.35L72.11 9.06L72.11 9.06Q72.11 6.78 70.76 6.78L70.76 6.78L70.76 6.78Q70.03 6.78 69.38 7.55L69.38 7.55L69.38 12.35L70.08 12.35L70.08 13.01L67.10 13.01L67.10 12.35L67.79 12.35L67.79 6.93L67.10 6.93L67.10 6.27L69.38 6.27L69.38 6.64L69.38 6.64Q69.73 6.38 70.13 6.24L70.13 6.24L70.13 6.24Q70.53 6.10 70.98 6.10L70.98 6.10L70.98 6.10Q72.31 6.10 73.03 6.92L73.03 6.92L73.03 6.92Q73.71 7.70 73.71 9.02L73.71 9.02L73.71 12.35L74.40 12.35L74.40 13.01ZM82.86 13.01L79.89 13.01L79.89 12.35L80.58 12.35L80.58 9.06L80.58 9.06Q80.58 6.78 79.22 6.78L79.22 6.78L79.22 6.78Q78.50 6.78 77.85 7.55L77.85 7.55L77.85 12.35L78.54 12.35L78.54 13.01L75.56 13.01L75.56 12.35L76.25 12.35L76.25 6.93L75.56 6.93L75.56 6.27L77.85 6.27L77.85 6.64L77.85 6.64Q78.20 6.38 78.60 6.24L78.60 6.24L78.60 6.24Q79.00 6.10 79.45 6.10L79.45 6.10L79.45 6.10Q80.77 6.10 81.49 6.92L81.49 6.92L81.49 6.92Q82.17 7.70 82.17 9.02L82.17 9.02L82.17 12.35L82.86 12.35L82.86 13.01ZM86.58 6.93L86.11 6.93L86.11 6.93Q86.30 7.42 86.47 7.86L86.47 7.86L86.47 7.86Q86.64 8.30 86.81 8.74L86.81 8.74L86.81 8.74Q86.98 9.17 87.15 9.62L87.15 9.62L87.15 9.62Q87.33 10.06 87.52 10.56L87.52 10.56L87.52 10.56Q87.70 10.09 87.87 9.65L87.87 9.65L87.87 9.65Q88.04 9.20 88.21 8.76L88.21 8.76L88.21 8.76Q88.38 8.31 88.55 7.86L88.55 7.86L88.55 7.86Q88.72 7.41 88.91 6.93L88.91 6.93L88.42 6.93L88.42 6.27L90.34 6.27L90.34 6.93L89.62 6.93L89.62 6.93Q88.87 8.89 88.14 10.83L88.14 10.83L88.14 10.83Q87.40 12.78 86.67 14.74L86.67 14.74L86.67 14.74Q86.09 16.25 84.96 16.25L84.96 16.25L84.96 16.25Q84.75 16.25 84.46 16.19L84.46 16.19L84.47 14.92L84.47 14.92Q84.97 15.17 85.24 15.17L85.24 15.17L85.24 15.17Q85.76 15.17 86.06 14.48L86.06 14.48L86.05 14.49L86.05 14.49Q86.22 14.02 86.38 13.59L86.38 13.59L86.38 13.59Q86.54 13.15 86.71 12.69L86.71 12.69L86.71 12.69Q86.15 11.22 85.60 9.81L85.60 9.81L85.60 9.81Q85.06 8.39 84.49 6.93L84.49 6.93L83.77 6.93L83.77 6.27L86.58 6.27L86.58 6.93Z"></path></g><defs data-v-fde0c5aa=""><!----></defs><g data-v-fde0c5aa="" id="d8c4e16c-5931-4575-aa7c-54b38bff4e9c" stroke="none" fill="#F05000" transform="matrix(1.3007115559928228,0,0,1.3007115559928228,84.94634690735373,55.51571291383371)"><path d="M93.4 75.1c-.4-.3-1.1-.1-1.4.3L89.7 79H9.8L8 75.3c-.2-.5-.8-.7-1.3-.4-.5.2-.7.8-.4 1.3l2.1 4.2c.1.4.4.6.8.6h81.1c.3 0 .7-.2.8-.5l2.6-4c.3-.5.2-1.1-.3-1.4z"></path><path d="M16.3 69.4h2.1v2.1c0 3 2.4 5.4 5.4 5.4H42c3 0 5.4-2.4 5.4-5.4v-3c1.2.7 2.4 1.3 3.8 1.8l-1 5.1c-.1.3 0 .6.2.8.2.2.5.4.8.4h22.2c.3 0 .6-.1.8-.4.2-.2.3-.5.2-.8l-1-5.1c6.7-2.5 13.2-8 13.6-19.9 0-.3-.1-.5-.3-.7-.2-.2-.4-.3-.7-.3h-7.8c2-2.2 7.5-8.6 7-13.2-.2-1.5-.8-3-1.8-4.1l3.8-5.1c.3-.4.2-1.1-.2-1.4-.4-.3-1.1-.2-1.4.2L83 29l.9-8c.1-.5-.3-1-.9-1.1-.5-.1-1 .3-1.1.9l-1 9.2c-.3-.1-.5-.3-.8-.4-2.2-.8-4.4-.5-5.8.8-1.8 1.7-3.9 4.7-5.2 6.8-.2-.8-.4-1.5-.8-2.2-1-1.6-2.5-2.4-4.5-2.6-2.1-.2-3.7.4-4.8 1.6-.6.7-.9 1.5-1.1 2.3-.8-.6-2-1.1-3.5-1.3-1.6-.2-2.9.1-3.9 1.1-1.1 1-1.5 2.5-1.7 3.8-.4-.2-.9-.4-1.4-.5-1.4-.1-2.7.6-4 2.3-1.4 1.8-1.9 3.6-1.4 5.2.3.9.8 1.7 1.4 2.3h-4.7c-.3 0-.5.1-.7.3-.2.2-.3.5-.3.7 0 .8.1 1.6.2 2.4H19.4c-.6 0-1 .4-1 1V59h-2.1c-2.9 0-5.2 2.3-5.2 5.2 0 2.8 2.4 5.2 5.2 5.2zm23.8-14.6h5.2v16.7c0 1.9-1.5 3.4-3.4 3.4H23.8c-1.9 0-3.4-1.5-3.4-3.4V54.8h19.7zm32 19.7H52.4l.7-3.7c2.3.6 4.8 1.1 7.5 1.3h3.2c2.2-.1 4.9-.5 7.5-1.3l.8 3.7zm-2.8-33.7l.1-.1s1.1-1.9 2.5-4c3 0 5.6 3.1 5.6 3.1.2.2.5.4.8.4.2 0 .4-.1.6-.2.4-.3.5-1 .1-1.4-.1-.1-2.6-3.1-5.8-3.7.8-1.1 1.7-2.1 2.4-2.8.9-.8 2.3-1 3.8-.4s3.4 2.2 3.7 4.8c.3 2.7-2.5 6.9-4.9 9.8-1-.9-2.7-1.9-4.1-2.7-.5-.3-1.1-.1-1.3.4-.3.5-.1 1.1.4 1.3 1.6.9 3.3 1.9 3.8 2.4-.3.4-.6.7-.9 1-.2.2-.3.5-.3.7h-8.4c.6-1.7 1.7-5.2 1.9-8.6zm-25.5 5.7c-.3-1 .1-2.1 1.1-3.4.6-.7 1.4-1.6 2.2-1.5.8.1 1.4 1 1.6 1.4.2.4.7.6 1.2.5.5-.1.8-.6.7-1-.1-.9 0-3.5 1.2-4.7.5-.5 1.3-.7 2.3-.5 2.3.3 3.3 1.4 3.7 2.2.1 1 .3 1.7.3 1.8.1.5.6.8 1 .7.5 0 .9-.4.9-.9.1-.6 0-1.3-.3-2.1-.1-1.2 0-2.6.8-3.4.6-.7 1.6-1 3.1-.9 1.4.1 2.4.6 3 1.6 2 3.2-.2 10.3-1.3 13.1h-3.5l.9-5.6c.1-.5-.3-1.1-.8-1.2-.5-.1-1.1.3-1.2.8l-1 6H55l-2.4-4c-.3-.5-.9-.6-1.4-.3-.5.3-.6.9-.3 1.4l1.8 2.9H47c-.7-.3-2.7-1.3-3.2-2.9zm-4.1 4.8h45.1c-1 14.5-12 18.3-21.1 18.8-1.5.1-3 0-3 0-5.6-.5-10-1.9-13.4-4.1V53.8c0-.6-.4-1-1-1h-6.6v-1.5zM16.3 61h2.1v6.4h-2.1c-1.8 0-3.2-1.4-3.2-3.2s1.5-3.2 3.2-3.2zM28.8 22.9c.1 0 3.2 1 2.6 4.3-.2 1.2-.9 2.1-1.6 3-1.4 1.9-3.1 4.1.8 8 .2.2.5.3.7.3.3 0 .5-.1.7-.3.4-.4.4-1 0-1.4-2.7-2.7-2-3.6-.6-5.4.8-1 1.7-2.2 1.9-3.9.7-4-2.4-6-4-6.5-.5-.2-1.1.1-1.2.7-.1.4.2 1 .7 1.2z"></path><path d="M32.4 32.2c-.3.5-.1 1.1.3 1.4.3.2 2.8 1.9 1.4 4.8-.5 1.1-1.4 1.8-2.3 2.5-1.9 1.5-4 3.2-1.3 8 .2.3.5.5.9.5.2 0 .3 0 .5-.1.5-.3.7-.9.4-1.4-1.9-3.3-1-4 .8-5.4 1-.8 2.2-1.7 2.9-3.3 1.7-3.7-.7-6.4-2.2-7.3-.5-.3-1.1-.1-1.4.3z"></path></g><!----></svg>